<svg width="513" height="513" viewBox="0 0 513 513" fill="none" xmlns="http://www.w3.org/2000/svg">
<g clip-path="url(#clip0)">
<path d="M470.044 122.19H470.034L356.254 76L297.644 136C297.394 135.79 297.144 135.57 296.904 135.35L296.254 136L256.254 70L216.254 136L156.254 76C151.339 78.107 19.1219 132.199 10.2539 136C10.5369 137.699 29.9699 254.298 30.2539 256L96.2539 236C96.2539 289.823 96.2539 448.294 96.2539 502C111.505 502 403.809 502 416.254 502C416.254 413.1 416.254 324.348 416.254 236L482.254 256C482.48 254.641 502.235 136.112 502.254 136L470.044 122.19Z" fill="#FF2351"/>
<path d="M336.254 10H176.254L156.254 76L216.254 136L256.254 70L296.254 136L296.904 135.35C304.192 128.062 348.715 83.539 356.254 76L336.254 10Z" fill="#FEC652"/>
<path d="M502.254 136.001L491.174 202.501C486.924 199.501 483.924 194.821 482.944 189.441C474.014 192.651 463.864 189.511 458.954 181.001C454.044 172.491 456.394 162.131 463.644 156.001C456.394 149.871 454.044 139.511 458.954 131.001C461.524 126.551 465.514 123.571 470.034 122.191H470.044L502.254 136.001Z" fill="#FEC652"/>
<path d="M379.554 110.999C384.464 119.509 382.114 129.869 374.864 135.999C382.114 142.129 384.464 152.489 379.554 160.999C374.644 169.509 364.494 172.649 355.564 169.439C353.874 178.779 346.084 185.999 336.254 185.999C326.424 185.999 318.634 178.779 316.944 169.439C308.014 172.649 297.864 169.509 292.954 160.999C288.044 152.489 290.394 142.129 297.644 135.999C297.394 135.789 297.144 135.569 296.904 135.349L344.444 87.8086C350.204 90.5186 354.384 96.0186 355.564 102.559C364.494 99.3486 374.644 102.489 379.554 110.999Z" fill="#FEC652"/>
<path d="M416.254 242.33V309.67C416.024 309.6 415.794 309.52 415.564 309.44C413.874 318.78 406.084 326 396.254 326C386.424 326 378.634 318.78 376.944 309.44C368.014 312.65 357.864 309.51 352.954 301C348.044 292.49 350.394 282.13 357.644 276C350.394 269.87 348.044 259.51 352.954 251C357.864 242.49 368.014 239.35 376.944 242.56C378.634 233.22 386.424 226 396.254 226C406.084 226 413.874 233.22 415.564 242.56C415.794 242.48 416.024 242.4 416.254 242.33Z" fill="#FEC652"/>
<path d="M379.554 397C384.464 405.51 382.114 415.87 374.864 422C382.114 428.13 384.464 438.49 379.554 447C374.644 455.51 364.494 458.65 355.564 455.44C353.874 464.78 346.084 472 336.254 472C326.424 472 318.634 464.78 316.944 455.44C308.014 458.65 297.864 455.51 292.954 447C288.044 438.49 290.394 428.13 297.644 422C290.394 415.87 288.044 405.51 292.954 397C297.864 388.49 308.014 385.35 316.944 388.56C318.634 379.22 326.424 372 336.254 372C346.084 372 353.874 379.22 355.564 388.56C364.494 385.35 374.644 388.49 379.554 397Z" fill="#FEC652"/>
<path d="M214.864 482C220.734 486.97 223.394 494.71 221.584 502H130.924C129.114 494.71 131.774 486.97 137.644 482C130.394 475.87 128.044 465.51 132.954 457C137.864 448.49 148.014 445.35 156.944 448.56C158.634 439.22 166.424 432 176.254 432C186.084 432 193.874 439.22 195.564 448.56C204.494 445.35 214.644 448.49 219.554 457C224.464 465.51 222.114 475.87 214.864 482Z" fill="#FEC652"/>
<path d="M159.554 311C164.464 319.51 162.114 329.87 154.864 336C162.114 342.13 164.464 352.49 159.554 361C154.644 369.51 144.494 372.65 135.564 369.44C133.874 378.78 126.084 386 116.254 386C106.424 386 98.6339 378.78 96.9439 369.44C96.7139 369.52 96.4839 369.6 96.2539 369.67V302.33C96.4839 302.4 96.7139 302.48 96.9439 302.56C98.6339 293.22 106.424 286 116.254 286C126.084 286 133.874 293.22 135.564 302.56C144.494 299.35 154.644 302.49 159.554 311Z" fill="#FEC652"/>
<path d="M93.5539 111C98.4639 119.51 96.1139 129.87 88.8639 136C96.1139 142.13 98.4639 152.49 93.5539 161C88.6439 169.51 78.4939 172.65 69.5639 169.44C67.8739 178.78 60.0839 186 50.2539 186C40.4239 186 32.6339 178.78 30.9439 169.44C25.8839 171.26 20.4139 171.04 15.7439 168.95L10.2539 136L85.8739 103.59C88.9739 105.22 91.6539 107.71 93.5539 111Z" fill="#FEC652"/>
<path d="M219.554 191C224.464 199.51 222.114 209.87 214.864 216C222.114 222.13 224.464 232.49 219.554 241C214.644 249.51 204.494 252.65 195.564 249.44C193.874 258.78 186.084 266 176.254 266C166.424 266 158.634 258.78 156.944 249.44C148.014 252.65 137.864 249.51 132.954 241C128.044 232.49 130.394 222.13 137.644 216C130.394 209.87 128.044 199.51 132.954 191C137.864 182.49 148.014 179.35 156.944 182.56C158.634 173.22 166.424 166 176.254 166C186.084 166 193.874 173.22 195.564 182.56C204.494 179.35 214.644 182.49 219.554 191Z" fill="#FEC652"/>
<path d="M336 124C329.376 124 324 129.376 324 136C324 142.624 329.376 148 336 148C342.624 148 348 142.624 348 136C348 129.376 342.624 124 336 124Z" fill="black"/>
<path d="M496 144C489.376 144 484 149.376 484 156C484 162.624 489.376 168 496 168C502.624 168 508 162.624 508 156C508 149.376 502.624 144 496 144Z" fill="black"/>
<path d="M256.004 206C250.484 206 246.004 210.48 246.004 216C246.004 221.52 250.484 226 256.004 226C261.524 226 266.004 221.52 266.004 216C266.004 210.48 261.524 206 256.004 206Z" fill="black"/>
<path d="M176 470C169.376 470 164 475.376 164 482C164 488.624 169.376 494 176 494C182.624 494 188 488.624 188 482C188 475.376 182.624 470 176 470Z" fill="black"/>
<path d="M114 324C107.376 324 102 329.376 102 336C102 342.624 107.376 348 114 348C120.624 348 126 342.624 126 336C126 329.376 120.624 324 114 324Z" fill="black"/>
<path d="M176 204C169.376 204 164 209.376 164 216C164 222.624 169.376 228 176 228C182.624 228 188 222.624 188 216C188 209.376 182.624 204 176 204Z" fill="black"/>
<path d="M397 264C390.376 264 385 269.376 385 276C385 282.624 390.376 288 397 288C403.624 288 409 282.624 409 276C409 269.376 403.624 264 397 264Z" fill="black"/>
<path d="M336 410C329.376 410 324 415.376 324 422C324 428.624 329.376 434 336 434C342.624 434 348 428.624 348 422C348 415.376 342.624 410 336 410Z" fill="black"/>
<path d="M51 126C44.376 126 39 131.376 39 138C39 144.624 44.376 150 51 150C57.624 150 63 144.624 63 138C63 131.376 57.624 126 51 126Z" fill="black"/>
<path d="M505.942 126.81L473.732 113C473.718 112.994 473.703 112.99 473.689 112.984C473.67 112.976 473.649 112.969 473.63 112.961L364.222 68.644L345.572 7.1C345.571 7.097 345.57 7.094 345.569 7.09C344.283 2.86 340.319 0 336.002 0H176.002C171.58 0 167.694 2.946 166.435 7.09C166.434 7.093 166.432 7.096 166.431 7.1L147.781 68.643L81.7796 94.359C81.7566 94.369 81.7346 94.379 81.7116 94.388L6.06157 126.81C1.82657 128.625 -0.620428 133.1 0.136572 137.645C2.53257 152.019 17.7996 243.622 20.1366 257.646C20.6176 260.531 22.3376 263.06 24.8426 264.569C27.3496 266.078 30.3906 266.411 33.1626 265.489L86.0006 249.876V369.575C86.0006 369.605 86.0006 369.635 86.0006 369.665V502.003C86.0006 507.525 90.4786 512.003 96.0006 512.003C101.141 512.003 412.553 512.003 416.001 512.003C421.523 512.003 426.001 507.525 426.001 502.003V249.875L478.839 265.488C481.612 266.41 484.652 266.075 487.159 264.568C489.664 263.059 491.384 260.53 491.865 257.645L511.865 137.644C512.623 133.099 510.177 128.626 505.942 126.81ZM484.593 179.626C482.846 179.288 481.021 179.416 479.309 180.031C474.618 181.716 469.705 180.06 467.363 176.003C465.019 171.941 466.041 166.856 469.847 163.638C472.095 161.738 473.391 158.944 473.391 156.001C473.391 153.058 472.095 150.265 469.847 148.364C466.04 145.146 465.019 140.06 467.362 136.001C468.101 134.721 469.009 133.8 469.93 133.131L490.847 142.1L484.593 179.626ZM368.156 143.638C371.963 146.856 372.984 151.942 370.64 156.003C368.298 160.061 363.383 161.716 358.694 160.031C355.927 159.037 352.861 159.308 350.313 160.78C347.765 162.25 345.995 164.767 345.471 167.661C344.582 172.571 340.689 176.001 336.001 176.001C331.313 176.001 327.42 172.571 326.531 167.661C326.008 164.767 324.237 162.25 321.689 160.78C319.142 159.309 316.076 159.036 313.308 160.031C308.618 161.717 303.704 160.06 301.362 156.003C299.018 151.941 300.04 146.856 303.846 143.638C305.216 142.479 306.227 140.986 306.812 139.333L344.567 101.578C344.978 102.439 345.293 103.36 345.469 104.337C345.99 107.233 347.762 109.75 350.31 111.222C352.858 112.692 355.923 112.966 358.693 111.972C363.383 110.287 368.297 111.943 370.639 116C372.983 120.062 371.961 125.147 368.155 128.365C365.907 130.265 364.611 133.059 364.611 136.002C364.611 138.945 365.908 141.737 368.156 143.638ZM256.002 57.501L206.002 20.001H306.002L256.002 57.501ZM181.43 26.571L242.755 72.565L214.058 119.915L167.31 73.167L181.43 26.571ZM330.574 26.571L344.694 73.167L297.946 119.915L269.249 72.565L330.574 26.571ZM84.0636 115.139C84.2646 115.416 84.4646 115.695 84.6396 115.998C86.9836 120.06 85.9616 125.145 82.1556 128.363C79.9076 130.263 78.6116 133.057 78.6116 136C78.6116 138.943 79.9076 141.736 82.1556 143.637C85.9626 146.855 86.9836 151.941 84.6396 156.002C82.2966 160.06 77.3826 161.715 72.6936 160.03C69.9266 159.036 66.8606 159.307 64.3126 160.779C61.7646 162.249 59.9946 164.766 59.4706 167.66C58.5816 172.57 54.6886 176 50.0006 176C45.3126 176 41.4196 172.57 40.5306 167.66C40.0076 164.765 38.2366 162.249 35.6886 160.779C33.1406 159.308 30.0756 159.035 27.3076 160.03C26.3116 160.389 25.2766 160.592 24.2456 160.65L21.1536 142.1L84.0636 115.139ZM148.156 343.638C151.963 346.856 152.984 351.942 150.64 356.003C148.297 360.061 143.382 361.715 138.694 360.031C135.926 359.036 132.86 359.308 130.313 360.78C127.765 362.25 125.995 364.767 125.471 367.661C124.582 372.571 120.689 376.001 116.001 376.001C111.313 376.001 107.42 372.571 106.531 367.661C106.417 367.03 106.232 366.421 106.001 365.834V306.184C106.232 305.591 106.416 304.977 106.531 304.341C107.42 299.431 111.313 296.001 116.001 296.001C120.689 296.001 124.582 299.431 125.471 304.341C125.994 307.235 127.765 309.752 130.313 311.222C132.86 312.694 135.926 312.965 138.694 311.971C143.383 310.285 148.298 311.942 150.64 315.999C152.984 320.061 151.962 325.146 148.156 328.364C145.908 330.264 144.612 333.058 144.612 336.001C144.612 338.944 145.908 341.737 148.156 343.638ZM143.848 474.364C140.041 471.146 139.02 466.06 141.364 461.999C143.705 457.94 148.619 456.284 153.31 457.971C156.078 458.965 159.143 458.693 161.691 457.222C164.239 455.752 166.009 453.235 166.533 450.341C167.422 445.431 171.315 442.001 176.003 442.001C180.691 442.001 184.584 445.431 185.473 450.341C185.996 453.235 187.767 455.752 190.315 457.222C192.863 458.693 195.928 458.965 198.696 457.971C203.387 456.285 208.3 457.942 210.642 461.999C212.986 466.061 211.964 471.146 208.158 474.364C205.911 476.263 204.615 479.055 204.614 481.998C204.613 484.939 205.907 487.732 208.152 489.633C208.973 490.328 209.658 491.134 210.221 492.001H141.786C142.349 491.134 143.034 490.328 143.855 489.633C146.1 487.733 147.394 484.94 147.393 481.998C147.39 479.055 146.095 476.263 143.848 474.364ZM363.847 268.364C360.04 265.146 359.019 260.06 361.363 255.999C363.705 251.94 368.617 250.285 373.309 251.971C376.077 252.966 379.143 252.693 381.69 251.222C384.238 249.752 386.008 247.235 386.532 244.341C387.421 239.431 391.314 236.001 396.002 236.001C400.69 236.001 404.583 239.431 405.472 244.341C405.586 244.972 405.771 245.581 406.002 246.168V305.819C405.771 306.412 405.587 307.026 405.472 307.662C404.583 312.572 400.69 316.002 396.002 316.002C391.314 316.002 387.421 312.572 386.532 307.662C386.009 304.768 384.238 302.251 381.69 300.781C379.143 299.31 376.077 299.038 373.309 300.032C368.618 301.718 363.705 300.061 361.363 296.004C359.019 291.942 360.041 286.857 363.847 283.639C366.095 281.739 367.391 278.945 367.391 276.002C367.391 273.059 366.096 270.264 363.847 268.364ZM474.062 242.813L419.164 226.513C418.862 226.412 418.554 226.338 418.247 226.267C412.77 219.922 404.769 216 396.002 216C385.089 216 375.362 222.074 370.216 231.338C359.64 231.161 349.495 236.548 344.041 246.002C338.585 255.457 338.983 266.915 344.433 276C338.984 285.085 338.585 296.543 344.041 305.998C349.496 315.452 359.646 320.827 370.216 320.662C375.362 329.926 385.089 336 396.002 336C399.497 336 402.862 335.358 406.002 334.206V492H266.002V256C266.002 250.478 261.524 246 256.002 246C250.48 246 246.002 250.478 246.002 256V492H231.41C230.759 488.478 229.473 485.082 227.588 481.974C233.021 472.894 233.413 461.448 227.963 452.002C222.508 442.547 212.382 437.147 201.788 437.338C196.642 428.074 186.915 422 176.002 422C165.089 422 155.362 428.074 150.216 437.338C139.619 437.117 129.495 442.549 124.041 452.002C118.591 461.447 118.983 472.894 124.416 481.974C122.531 485.082 121.246 488.478 120.594 492H106.002V394.206C109.142 395.357 112.507 396 116.002 396C126.915 396 136.642 389.926 141.788 380.662C152.338 380.858 162.508 375.451 167.963 365.998C173.419 356.543 173.021 345.085 167.571 336C173.02 326.915 173.419 315.457 167.963 306.002C162.508 296.547 152.388 291.166 141.788 291.338C136.642 282.074 126.915 276 116.002 276C112.507 276 109.142 276.642 106.002 277.794V236C106.002 232.785 104.457 229.767 101.849 227.888C99.2416 226.009 95.8896 225.498 92.8396 226.513L37.9416 242.813L28.5776 186.631C34.0176 192.442 41.6586 196 50.0016 196C60.9146 196 70.6416 189.926 75.7876 180.662C86.3496 180.834 96.5086 175.452 101.963 165.998C107.419 156.543 107.021 145.085 101.571 136C106.793 127.293 107.361 116.411 102.597 107.196L153.717 87.859L208.93 143.072C213.53 147.672 221.203 146.712 224.553 141.183L246.001 105.793V176C246.001 181.522 250.479 186 256.001 186C261.523 186 266.001 181.522 266.001 176V105.793L284.375 136.109C278.987 145.177 278.606 156.58 284.041 165.998C289.496 175.453 299.652 180.84 310.216 180.662C315.362 189.926 325.089 196 336.002 196C346.915 196 356.642 189.926 361.788 180.662C372.359 180.834 382.509 175.452 387.963 165.998C393.419 156.543 393.021 145.085 387.571 136C393.02 126.915 393.419 115.457 387.963 106.002C385.942 102.499 383.279 99.556 380.19 97.246L450.713 124.898C450.482 125.261 450.257 125.628 450.041 126.002C444.585 135.457 444.983 146.915 450.433 156C444.984 165.085 444.585 176.543 450.041 185.998C455.409 195.303 465.297 200.668 475.709 200.667C475.871 200.667 476.033 200.665 476.196 200.663C477.302 202.667 478.631 204.532 480.159 206.23L474.062 242.813Z" fill="black"/>
<path d="M227.962 186.002C222.507 176.548 212.381 171.177 201.787 171.338C196.641 162.074 186.914 156 176.001 156C165.088 156 155.361 162.074 150.215 171.338C139.618 171.11 129.494 176.548 124.04 186.002C118.584 195.457 118.982 206.915 124.432 216C118.983 225.085 118.584 236.543 124.04 245.998C129.495 255.453 139.666 260.832 150.215 260.662C155.361 269.926 165.088 276 176.001 276C186.914 276 196.641 269.926 201.787 260.662C201.956 260.665 202.125 260.667 202.294 260.667C212.704 260.666 222.595 255.301 227.962 245.998C233.418 236.543 233.02 225.085 227.57 216C233.019 206.915 233.418 195.457 227.962 186.002ZM208.155 223.637C211.962 226.855 212.983 231.941 210.639 236.002C208.296 240.06 203.383 241.715 198.693 240.03C195.925 239.035 192.86 239.308 190.312 240.779C187.764 242.249 185.994 244.766 185.47 247.66C184.581 252.57 180.688 256 176 256C171.312 256 167.419 252.57 166.53 247.66C166.007 244.766 164.236 242.249 161.688 240.779C160.151 239.891 158.425 239.44 156.69 239.44C155.549 239.44 154.405 239.635 153.307 240.03C148.617 241.716 143.703 240.059 141.361 236.002C139.017 231.94 140.039 226.855 143.845 223.637C146.093 221.737 147.389 218.943 147.389 216C147.389 213.057 146.093 210.264 143.845 208.363C140.038 205.145 139.017 200.059 141.361 195.998C143.702 191.94 148.616 190.282 153.307 191.97C156.075 192.965 159.14 192.693 161.688 191.221C164.236 189.751 166.006 187.234 166.53 184.34C167.419 179.43 171.312 176 176 176C180.688 176 184.581 179.43 185.47 184.34C185.993 187.234 187.764 189.751 190.312 191.221C192.86 192.693 195.925 192.965 198.693 191.97C203.384 190.283 208.297 191.941 210.639 195.998C212.983 200.06 211.961 205.145 208.155 208.363C205.907 210.263 204.611 213.057 204.611 216C204.611 218.943 205.907 221.736 208.155 223.637Z" fill="black"/>
<path d="M310.215 377.338C299.65 377.128 289.494 382.548 284.04 392.002C278.584 401.457 278.982 412.915 284.432 422C278.983 431.085 278.584 442.543 284.04 451.998C289.495 461.453 299.651 466.868 310.215 466.662C315.361 475.926 325.088 482 336.001 482C346.914 482 356.641 475.926 361.787 466.662C372.358 466.837 382.508 461.452 387.962 451.998C393.418 442.543 393.02 431.085 387.57 422C393.019 412.915 393.418 401.457 387.962 392.002C382.507 382.547 372.366 377.152 361.787 377.338C356.641 368.074 346.914 362 336.001 362C325.088 362 315.361 368.074 310.215 377.338ZM345.471 390.34C345.994 393.234 347.765 395.751 350.313 397.221C352.86 398.693 355.926 398.965 358.694 397.97C363.384 396.285 368.298 397.941 370.64 401.998C372.984 406.06 371.962 411.145 368.156 414.363C365.908 416.263 364.612 419.057 364.612 422C364.612 424.943 365.908 427.736 368.156 429.637C371.963 432.855 372.984 437.941 370.64 442.002C368.298 446.06 363.383 447.715 358.694 446.03C355.926 445.036 352.86 445.307 350.313 446.779C347.765 448.249 345.995 450.766 345.471 453.66C344.582 458.57 340.689 462 336.001 462C331.313 462 327.42 458.57 326.531 453.66C326.008 450.766 324.237 448.249 321.689 446.779C320.152 445.891 318.426 445.44 316.691 445.44C315.55 445.44 314.406 445.635 313.308 446.03C308.618 447.716 303.704 446.059 301.362 442.002C299.018 437.94 300.04 432.855 303.846 429.637C306.094 427.737 307.39 424.943 307.39 422C307.39 419.057 306.094 416.264 303.846 414.363C300.039 411.145 299.018 406.059 301.362 401.998C303.704 397.939 308.617 396.283 313.308 397.97C316.076 398.965 319.142 398.693 321.689 397.221C324.237 395.751 326.007 393.234 326.531 390.34C327.42 385.43 331.313 382 336.001 382C340.689 382 344.582 385.429 345.471 390.34Z" fill="black"/>
</g>
<defs>
<clipPath id="clip0">
<rect width="512.003" height="512.003" fill="white"/>
</clipPath>
</defs>
</svg>
