<?xml version="1.0" encoding="utf-8"?>
<!-- Generator: Adobe Illustrator 21.0.0, SVG Export Plug-In . SVG Version: 6.00 Build 0)  -->
<svg version="1.1" id="Layer_1" xmlns="http://www.w3.org/2000/svg" xmlns:xlink="http://www.w3.org/1999/xlink" x="0px" y="0px"
	 viewBox="0 0 1920 1080" style="enable-background:new 0 0 1920 1080;" xml:space="preserve">
<style type="text/css">
	.st0{fill:url(#SVGID_1_);}
	.st1{fill:#FFFFFF;}
	.st2{fill:#212121;}
</style>
<linearGradient id="SVGID_1_" gradientUnits="userSpaceOnUse" x1="966.3633" y1="303.0871" x2="991.7565" y2="303.0871">
	<stop  offset="0" style="stop-color:#F8AA82"/>
	<stop  offset="1" style="stop-color:#F17D2D"/>
</linearGradient>
<path class="st0" d="M966.4,305c6.3-2.5,13-3.8,20-3.8c1.8,0,3.6,0.1,5.4,0.3"/>
<path class="st1" d="M1109,134.2c-29.3-4.6-56.8,15.5-61.4,44.8c0,0-12.5,80.4-21.7,139.8c-0.6-0.6-1.1-1.3-1.7-1.9
	c-8.9-8.9-20.3-14.2-32.6-15.5c-1.8-0.2-3.6-0.3-5.4-0.3c-7,0-13.7,1.3-20,3.8c-6.7,2.7-12.8,6.7-18,11.9c-1.1,1-2,2.2-3,3.3
	c-0.5-0.6-1.1-1.2-1.6-1.8c-10.1-10.1-23.6-15.7-38-15.7s-27.8,5.6-38,15.7c0,0,0,0,0,0l-11.2-101.3c-3.5-29.5-30.2-50.6-59.6-47.2
	c-29.4,3.4-50.6,30.2-47.1,59.6c0,0,39.1,343.7,39.1,343.7c0.2,1.5,0.5,3,0.8,4.5c3.5,42.5,19.1,83.1,44,114.9l1.7,295.5l0.1,11.9
	h266.2l-1-12.8l-23-302.1c2.8-3.5,7.7-9.2,11.6-13.5c11.8-13.5,19.4-22.4,22.5-28.8c29.9-51.7,31.5-104.3,4.4-148.2
	c-1.8-5.5-3.9-10.8-6.2-16.1c5-31.9,43.9-282.8,43.9-282.8C1158.4,166.3,1138.3,138.8,1109,134.2z M1130.2,191.9
	c0,0-44.5,286.1-44.5,286.1l-0.5,3.5l1.5,3.2c2.7,6.1,5.2,12.3,7.2,18.7l0.5,1.4l0.8,1.2c22.9,36.4,21.4,80.7-4.2,124.9l-0.4,0.7
	l-0.3,0.7c-1.7,3.7-12.5,16-18.9,23.4c-8.4,9.6-13.7,15.7-16.1,19.8l-1.9,3.2l0.3,3.7l22.4,293.5H859.2l-1.7-287.8l0-4.2l-2.7-3.3
	c-23.5-28.7-38.2-66.1-41.3-105.5l-0.1-0.8l-0.2-0.8c-0.3-1.1-0.4-2.2-0.6-3.2c0,0-39.1-343.7-39.1-343.7
	c-1.9-16.4,9.8-31.2,26.2-33.1c16.3-1.9,31.2,9.8,33.1,26.2c0-0.1,18,162.2,19.2,173.6v113.6c0,29.6,24.1,53.7,53.7,53.7
	c16.4,0,31.1-7.4,41-19.1c9.8,10.8,23.9,17.6,39.6,17.6c29.6,0,53.7-24.1,53.7-53.7V384l31.2-201.4c2.5-16.2,17.8-27.4,34.1-24.9
	C1121.6,160.3,1132.8,175.6,1130.2,191.9z M875.9,357.9c0-8,3.1-15.5,8.7-21.1c5.6-5.6,13.1-8.7,21.1-8.7c12.1,0,23,7.5,27.6,18.5
	c-0.4,2.7-0.7,5.5-0.7,8.3v150.7c0,3.9,0.4,7.7,1.3,11.4c-4.1,11.6-15.1,19.9-28.1,19.9c-16.5,0-29.8-13.4-29.8-29.8V357.9z
	 M1007.4,335.3c5.6,5.6,8.7,13.1,8.7,21.1v149.2c0,16.5-13.4,29.8-29.8,29.8c-12.6,0-23.4-7.9-27.7-18.9c0.5-3.1,0.9-6.2,0.9-9.4
	V356.4c0-3.6-0.3-7.1-1-10.5c4.3-11.5,15.3-19.4,27.9-19.4C994.3,326.5,1001.8,329.6,1007.4,335.3z"/>
<path class="st2" d="M958.4,345.9c0.7,3.4,1,6.9,1,10.5v150.7c0,3.2-0.3,6.4-0.9,9.4c4.4,11.1,15.1,18.9,27.7,18.9
	c16.5,0,29.8-13.4,29.8-29.8V356.4c0-8-3.1-15.5-8.7-21.1s-13.1-8.7-21.1-8.7C973.8,326.5,962.8,334.3,958.4,345.9z"/>
<path class="st2" d="M905.7,536.9c13,0,24-8.3,28.1-19.9c-0.8-3.7-1.3-7.5-1.3-11.4V354.9c0-2.8,0.3-5.6,0.7-8.3
	c-4.5-11-15.5-18.5-27.6-18.5c-8,0-15.5,3.1-21.1,8.7c-5.6,5.6-8.7,13.1-8.7,21.1v149.2C875.9,523.5,889.3,536.9,905.7,536.9z"/>
<path class="st2" d="M1105.3,157.8c-16.3-2.5-31.6,8.6-34.1,24.9L1040,384v121.6c0,29.6-24.1,53.7-53.7,53.7
	c-15.7,0-29.8-6.8-39.6-17.6c-9.9,11.6-24.6,19.1-41,19.1c-29.6,0-53.7-24.1-53.7-53.7V393.5c-1.3-11.4-19.2-173.7-19.2-173.6
	c-1.9-16.3-16.8-28.1-33.1-26.2c-16.3,1.9-28.1,16.8-26.2,33.1c0,0,39.1,343.7,39.1,343.7c0.1,1,0.3,2.1,0.6,3.2l0.2,0.8l0.1,0.8
	c3.2,39.4,17.9,76.9,41.3,105.5l2.7,3.3l0,4.2l1.7,287.8h216.7l-22.4-293.5l-0.3-3.7l1.9-3.2c2.4-4.2,7.7-10.2,16.1-19.8
	c6.5-7.4,17.3-19.7,18.9-23.4l0.3-0.7l0.4-0.7c25.6-44.2,27.2-88.5,4.2-124.9l-0.8-1.2l-0.5-1.4c-2.1-6.3-4.5-12.6-7.2-18.7
	l-1.5-3.2l0.5-3.5c0,0,44.5-286.1,44.5-286.1C1132.8,175.6,1121.6,160.3,1105.3,157.8z"/>
<path class="st2" d="M974.4,405.7l-0.2-0.2l-0.2-0.2c-13.8-12.4-35.2-11.2-47.6,2.6c-12.4,13.8-11.2,35.2,2.6,47.6l100,89.2
	l51.5-51.4L974.4,405.7z"/>
<path class="st1" d="M926.4,408.1c12.4-13.8,33.7-15,47.6-2.6l0.2,0.2l0.2,0.2l106.2,87.7l18,14.9l15.2-18.4L989.6,387.3l0.4,0.3
	c-11.5-10.3-26.2-15.4-41.6-14.6c-15.3,0.9-29.5,7.6-39.7,19.1c-21.2,23.7-19.1,60.1,4.5,81.3c0,0,43.6,38.9,75.5,67.3
	c-54.5,11.1-95,51.3-95,99.2h20.9c0-42.3,41.6-77.1,94.6-81c7.5,6.7,12.4,11,12.4,11l15.9-17.8l-8.2-7.3l-100-89.2
	C915.2,443.2,914,421.9,926.4,408.1z"/>
</svg>
