<?xml version="1.0" encoding="utf-8"?>
<!-- Generator: Adobe Illustrator 21.0.0, SVG Export Plug-In . SVG Version: 6.00 Build 0)  -->
<svg version="1.1" id="hands" xmlns="http://www.w3.org/2000/svg" xmlns:xlink="http://www.w3.org/1999/xlink" x="0px" y="0px"
	 viewBox="0 0 72.7 117" style="enable-background:new 0 0 72.7 117;" xml:space="preserve">
<style type="text/css">
	.st0{fill:none;stroke:#FFFFFF;stroke-width:0.4758;stroke-miterlimit:10;}
</style>
<g>
	<path class="st0" d="M34,9.3c1.2-0.9,2.1-1.3,2.9-1.3c0.3,0,0.6,0.1,0.9,0.2c0.3-0.6,0.3-1.1,0.1-1.4c-0.1-0.1-0.3-0.2-0.4-0.2
		c-0.5,0-1.3,0.5-2,0.9c-0.6,0.4-1.1,0.7-1.6,0.7c-0.2,0-0.4-0.1-0.5-0.2c-0.5-0.4-0.1-1,0.1-1.4c0.1-0.2,0.3-0.5,0.3-0.6
		c0,0-0.1-0.1-0.3-0.2c-0.5-0.2-0.9,0-1.4,0.2c-0.4,0.2-0.8,0.4-1.4,0.4c-0.4,0-0.8-0.1-1.2-0.3c-0.4-0.2-0.7-0.3-0.9-0.3
		c-0.3,0-0.6,0.2-1,0.7c0,0-0.1,0.1-0.1,0.1c2.7,0.6,4.7,2,5.9,3.2C33.7,9.5,33.9,9.4,34,9.3z"/>
	<path class="st0" d="M15.2,10.4c1.3,0,2.6,0.3,3.5,0.6c0.4,0.1,0.8,0.2,1.2,0.2c0.7,0,1.3-0.2,2.2-0.4c1.2-0.3,2.6-0.6,4.8-0.7
		c1.4,0,2.4,0.4,2.9,1.2c0.2,0.3,0.3,0.7,0.4,1c1-0.6,1.9-1.4,2.7-2.1c0,0,0.1-0.1,0.1-0.1c-1.5-1.4-4.2-3.2-7.8-3.3l-0.3,0
		c-3.2,0-3.9,0.6-4.6,1.1c-0.5,0.4-1.1,0.9-2.7,1c-3.4,0.2-4.2,0.2-4.6,0.9c0,0.1,0.1,0.4,0.4,0.8C13.9,10.5,14.5,10.4,15.2,10.4z"
		/>
	<path class="st0" d="M14.3,14.5c0.1-0.2,0.1-0.4,0.2-0.6c0.2-0.9,0.4-1.5,2.6-2c0.4-0.1,0.8-0.1,1.3-0.1c1.3,0,2.3,0.4,3.4,0.9
		c1.2,0.5,2.5,1,4.2,0.9c1.3-0.1,2.4-0.4,3.4-0.9c0-0.4-0.1-0.7-0.3-1c-0.4-0.6-1.2-0.9-2.3-0.8c-2.1,0.1-3.5,0.4-4.6,0.7
		c-0.9,0.2-1.6,0.4-2.3,0.4c-0.5,0-0.9-0.1-1.4-0.2c-0.8-0.3-2-0.6-3.2-0.6c-1.4,0-2.4,0.4-3,1.2C12,12.5,12,12.7,12,12.7
		C12.2,13.3,13.3,13.9,14.3,14.5z"/>
	<path class="st0" d="M34.5,9.8c-0.4,0.3-0.8,0.6-1.1,1c-1.9,1.6-4,3.4-7.3,3.6c-1.8,0.1-3.2-0.5-4.5-1c-1-0.4-2-0.8-3.2-0.8
		c-0.4,0-0.7,0-1.1,0.1c-1.9,0.4-2,0.8-2.1,1.4c-0.1,0.4-0.2,0.9-0.7,1.5c-0.4,0.4-1.4,1.6-1.4,3.1c0,0.2,0,0.3,0,0.5
		c1.1-0.2,2.3-0.6,3.3-1c1.5-0.5,2.8-1,3.9-0.9c0.6,0.1,1.5,0.9,2.4,2c0.3-0.5,0.8-0.9,1.4-1.2c1.7-0.6,3.9-0.9,6.1-1.2
		c2.7-0.3,5.5-0.7,7.1-1.7c0.8-0.5,1.6-1.3,2.4-2.2c0-1-0.1-2-0.6-2.8c-0.8-1.1-1.5-1.7-2.2-1.7C36.3,8.7,35.5,9,34.5,9.8z"/>
	<path class="st0" d="M37.7,15.9c-1.7,1.1-4.6,1.4-7.4,1.8c-2.1,0.3-4.4,0.5-5.9,1.1c-0.6,0.2-1,0.6-1.2,1.2
		c-0.4,1.2-0.1,2.8,0.4,4.1c1.9-2.8,5.2-3.2,8.4-3.6c1.5-0.2,3.1-0.4,4.6-0.8c2.1-0.7,4.2-2.8,6.2-4.9c1.8-1.8,3.4-3.4,4.9-4
		c-0.4-0.9-1-1.6-1.9-1.8c-0.1,0-0.2,0-0.3,0c-1.3,0-2.8,1.8-4.2,3.5C40.1,13.7,39,15.1,37.7,15.9z"/>
	<path class="st0" d="M46.1,20.2c-0.5,0.6-0.9,1.1-1.1,1.5c-0.4,0.6-0.2,1.7,0.2,3.2c0.1,0.5,0.3,1.1,0.4,1.7
		c1.9-1.6,3.6-4.5,4.2-6.3c0.2-0.6,0.4-1.2,0.5-1.8c0.5-1.7,0.9-3.2,1.8-3.8c0.6-0.4,1.1-1.4,0.9-2.3c-0.1-0.5-0.4-0.8-0.8-0.9
		c0,0-0.1,0-0.2,0c-0.4,0-1,0.3-1.6,0.7C50.9,13.9,48.6,17.1,46.1,20.2z"/>
	<path class="st0" d="M62.2,74.3c-0.5-0.4-1.3-1-1.3-1s5-2.7,6.4-3.3c-4.8-2.7-7.9-2-7.9-2s-0.1-0.6,0.4-1.2
		c-2.5-1.5-5.2-0.6-5.2-0.6s0.5-0.7,1-1.4c-3.8-1.2-6,1-6,1s-0.3-1,0.1-1.9c-3.3,0-5.7,3.2-5.7,3.2l-0.3-1.5c0,0-5.6,3.5-6.7,11
		l1-0.6c0.5-0.3,1.1-0.6,1.6-0.9c0.2-0.1,0.5-0.2,0.7-0.4c0.3-0.2,0.6-0.3,0.8-0.4c0.1-0.1,0.3-0.1,0.4-0.2l1.2-0.5
		c0.5-0.2,1.1-0.4,1.6-0.5c0.3-0.1,0.5-0.2,0.8-0.3c0.5-0.1,1-0.3,1.5-0.4c0.3-0.1,0.5-0.1,0.8-0.2c0.1,0,0.1,0,0.2,0
		c0.1,0,1-0.3,2.8-0.4c1.9-0.1,3.5,0.1,3.5,0.1l-2.5,0.3c-0.4,0-0.8,0.1-1.2,0.2c-0.2,0-0.3,0.1-0.5,0.1l-1.5,0.3
		c-0.1,0-0.2,0.1-0.3,0.1c-0.1,0-0.1,0-0.2,0.1c-0.1,0-0.2,0-0.2,0.1c-0.7,0.2-1.4,0.3-2.2,0.5c-0.8,0.3-1.6,0.5-2.4,0.8
		c-0.4,0.2-0.8,0.3-1.2,0.5c-0.4,0.2-0.8,0.3-1.2,0.5c-0.8,0.4-1.6,0.8-2.3,1.2c-0.4,0.2-0.7,0.5-1.1,0.7c-0.3,0.2-0.7,0.5-1,0.7
		c-0.2,0.1-0.3,0.2-0.5,0.4c-0.2,0.1-0.3,0.3-0.5,0.4c-0.3,0.3-0.6,0.5-0.9,0.7c-0.3,0.3-0.6,0.5-0.8,0.8c-0.1,0.1-0.3,0.2-0.4,0.4
		c-0.1,0.1-0.2,0.2-0.4,0.4c-0.2,0.2-0.4,0.4-0.6,0.6c0-0.3,0-0.5,0-0.8c0-0.8,0.1-1.6,0.1-2.4c0-0.7,0-1.4,0.1-2.1h2.3l-2.3-1.1
		c0-0.6,0-1.1,0.1-1.7c0-0.9,0-1.6,0-2.5c0-3.3,0-6.7-0.1-10.1C32,57,31.8,53,31.4,49c0.7,0.5,1.3,1.2,1.8,2.2c0-0.9,0-1.8-0.2-2.5
		c2,0,5.8,0.2,7.5,1.6c-2.3-5.2-6.8-3.3-6.8-3.3s5.1-2.8,10.2-2.7c-1-0.9-2.1-1.3-3.4-1.4c1.3-1.2,2.6-3.2,3.7-6.5
		c1.7-5.1,0.8-8.9,0.2-11.4c-0.4-1.7-0.7-2.9-0.1-3.8c0.2-0.4,0.7-0.9,1.1-1.5c1.6-2.1,4.7-6,4.2-7.6c-0.1-0.3-0.3-0.5-0.6-0.6
		c-0.2-0.1-0.3-0.1-0.5-0.1c-1.5,0-3.4,1.9-5.4,4c-2.1,2.1-4.3,4.4-6.5,5.1c-1.5,0.5-3.1,0.7-4.7,0.9c-3.3,0.4-6.4,0.8-8.1,3.8
		c-1.5,2.6-1.7,8.3,0.4,12.9c1.2,2.5,3.5,5.6,8.1,6.3c0.1,0,0.2,0,0.4,0.1L31.2,45c0,0,0,0.1,0,0.1c-1-0.9-2-1.1-2-1.1l0,0
		c-2.8-1.4-4.5-3.7-5.4-5.7c-2.2-4.6-2-10.4-0.6-13.2c-0.5-1.4-1.1-3.4-0.7-4.9c-0.9-1.2-1.7-2-2.2-2.1c-0.9-0.1-2.2,0.4-3.5,0.9
		c-1.6,0.6-3.4,1.2-5.2,1.2h0c-0.6,0-1.3-0.1-1.8-0.3C8,19.3,7,18.2,6.2,17.3c-0.6-0.6-1.1-1.1-1.6-1.1c-0.2,0-0.5,0.1-0.8,0.4
		c-1,0.8-1.1,1.7-1,2.4c0.2,1.1,1,2.1,2,2.5c0.5,0.2,1.1,0.3,1.8,0.4c2.3,0.3,5.5,0.7,6.9,4.3c0.5,1.3,0.9,3.2,1.4,5.2
		c1.1,5,2.4,11.3,6.7,12.4c1.5,0.4,3.2,0.6,5.1,0.6c0.2,0,0.4,0,0.6,0l-2.9,0.4c0,0-6.8,0.6-8.3,4.8c4.2-2.3,9.5-2.3,9.5-2.3
		s-4.4,0.5-4,5.7c1-2.6,6.5-5.1,6.5-5.1s0.8,0,1.9,0.4c0.2,4.3,0.3,8.7,0.3,13c0,0,0,0.1,0,0.1l-3.8-0.8l3.8,2.6
		c0,2.6-0.1,5.3-0.2,7.9c0,0.8-0.1,1.7-0.1,2.4c-0.1,0.8-0.1,1.6-0.2,2.4c-0.1,0.8-0.1,1.6-0.2,2.3c-0.1,0.8-0.1,1.5-0.2,2.3
		c-0.1,1.5-0.3,3-0.5,4.4c-0.1,0.9-0.2,1.7-0.3,2.6l-3.1,0.7h3c0,0.3-0.1,0.6-0.1,0.9c-0.2,1.3-0.4,2.6-0.7,3.8
		c-0.2,1.2-0.5,2.4-0.7,3.5c-0.1,0.5-0.3,1.1-0.4,1.6c-0.1,0.5-0.3,1-0.4,1.5c-0.3,1-0.6,1.8-0.8,2.6c-0.3,0.8-0.6,1.5-0.8,2.1
		c-0.3,0.6-0.5,1.2-0.8,1.6c-0.5,0.9-0.9,1.5-1.1,1.8c-0.1,0.1-0.1,0.1-0.2,0.2c0,0.1,0,0-0.1,0.1c0,0,0,0-0.1,0.1c0,0,0,0,0,0
		l0.3,0.9c1,1,2.1,1.9,3.3,2.7c0.3-0.5,0.5-1,0.8-1.6c0.3-0.6,0.6-1.4,0.9-2.2c0.3-0.8,0.6-1.7,0.9-2.7c0.3-1,0.6-2,0.9-3.2
		c0.1-0.6,0.3-1.1,0.4-1.7c0-0.1,0-0.1,0-0.2l2.7-1.3h-2.4c0-0.1,0-0.2,0.1-0.3c0.3-1.2,0.5-2.6,0.7-3.9c0.2-1.3,0.4-2.8,0.6-4.2
		c0.2-1.4,0.3-2.9,0.4-4.5c0-0.4,0.1-0.8,0.1-1.2c0.2-0.3,0.4-0.6,0.7-1c0.2-0.2,0.3-0.4,0.5-0.6c0.2-0.2,0.4-0.4,0.6-0.7
		c0.1-0.1,0.2-0.2,0.3-0.4c0.1-0.1,0.2-0.2,0.3-0.4c0.2-0.2,0.5-0.5,0.7-0.8c0.3-0.2,0.5-0.5,0.8-0.8c0.1-0.1,0.3-0.3,0.4-0.4
		c0.2-0.1,0.3-0.2,0.5-0.4c0.3-0.2,0.5-0.4,0.8-0.6c4.8,5.6,11,5.5,11.9,5.1c-0.1-0.9-0.6-1.9-0.6-1.9s4.8,1.6,6.4-0.2
		c-0.6-0.5-1.4-1.8-1.4-1.8s3.7,0.1,5.5-2C58.9,77,58.1,76,58.1,76S60.1,76.4,62.2,74.3z"/>
</g>
</svg>
